<svg xmlns="http://www.w3.org/2000/svg" xmlns:svg="http://www.w3.org/2000/svg" id="svg2" width="210mm" height="297mm"><metadata id="metadata7"/><g id="layer1"><g style="fill:navy;stroke:#000;stroke-width:2.5999999;stroke-miterlimit:4;stroke-dasharray:none;stroke-opacity:1" id="g2383"><path id="path2395" d="M 165.04405,433.06625 L 372.02451,316.29166 L 372.02451,427.96116 L 165.04405,482.60704 L 165.04405,433.06625 z" style="fill:#e9e9ff;fill-rule:evenodd;stroke:none;stroke-width:1px;stroke-linecap:butt;stroke-linejoin:round;stroke-opacity:1"/><path id="path2385" d="M 99.58158,422.49322 L 99.58158,477.67232 L 165.04405,482.60704 L 165.04405,433.06625 L 99.58158,422.49322 z" style="fill:#353564;fill-rule:evenodd;stroke:none;stroke-width:1px;stroke-linecap:butt;stroke-linejoin:round;stroke-opacity:1"/><path id="path2387" d="M 99.58158,422.49322 L 261.83828,253.5458 L 372.02451,316.29166 L 165.04405,433.06625 L 99.58158,422.49322 z" style="fill:#4d4d9f;fill-rule:evenodd;stroke:none;stroke-width:1px;stroke-linecap:butt;stroke-linejoin:round;stroke-opacity:1"/><path id="path2393" d="M 99.58158,477.67232 L 261.83828,398.63287 L 372.02451,427.96116 L 165.04405,482.60704 L 99.58158,477.67232 z" style="fill:#afafde;fill-rule:evenodd;stroke:none;stroke-width:1px;stroke-linecap:butt;stroke-linejoin:round;stroke-opacity:1"/><path id="path2391" d="M 261.83828,253.5458 L 261.83828,398.63287 L 372.02451,427.96116 L 372.02451,316.29166 L 261.83828,253.5458 z" style="fill:#d7d7ff;fill-rule:evenodd;stroke:none;stroke-width:1px;stroke-linecap:butt;stroke-linejoin:round;stroke-opacity:1"/><path id="path2389" d="M 99.58158,422.49322 L 261.83828,253.5458 L 261.83828,398.63287 L 99.58158,477.67232 L 99.58158,422.49322 z" style="fill:#8686bf;fill-rule:evenodd;stroke:none;stroke-width:1px;stroke-linecap:butt;stroke-linejoin:round;stroke-opacity:1"/></g><g style="fill:navy;stroke:#000;stroke-width:2.5999999;stroke-miterlimit:4;stroke-dasharray:none;stroke-opacity:1" id="g2397"><path id="path2409" d="M 633.19039,454.81957 L 683.70561,449.12643 L 683.70561,491.26819 L 633.19039,493.84771 L 633.19039,454.81957 z" style="fill:#e9e9ff;fill-rule:evenodd;stroke:none;stroke-width:1px;stroke-linecap:butt;stroke-linejoin:round;stroke-opacity:1"/><path id="path2399" d="M 430.4178,320.03894 L 430.4178,433.00274 L 633.19039,493.84771 L 633.19039,454.81957 L 430.4178,320.03894 z" style="fill:#353564;fill-rule:evenodd;stroke:none;stroke-width:1px;stroke-linecap:butt;stroke-linejoin:round;stroke-opacity:1"/><path id="path2401" d="M 430.4178,320.03894 L 547.50268,263.96289 L 683.70561,449.12643 L 633.19039,454.81957 L 430.4178,320.03894 z" style="fill:#4d4d9f;fill-rule:evenodd;stroke:none;stroke-width:1px;stroke-linecap:butt;stroke-linejoin:round;stroke-opacity:1"/><path id="path2407" d="M 430.4178,433.00274 L 547.50268,407.65579 L 683.70561,491.26819 L 633.19039,493.84771 L 430.4178,433.00274 z" style="fill:#afafde;fill-rule:evenodd;stroke:none;stroke-width:1px;stroke-linecap:butt;stroke-linejoin:round;stroke-opacity:1"/><path id="path2405" d="M 547.50268,263.96289 L 547.50268,407.65579 L 683.70561,491.26819 L 683.70561,449.12643 L 547.50268,263.96289 z" style="fill:#d7d7ff;fill-rule:evenodd;stroke:none;stroke-width:1px;stroke-linecap:butt;stroke-linejoin:round;stroke-opacity:1"/><path id="path2403" d="M 430.4178,320.03894 L 547.50268,263.96289 L 547.50268,407.65579 L 430.4178,433.00274 L 430.4178,320.03894 z" style="fill:#8686bf;fill-rule:evenodd;stroke:none;stroke-width:1px;stroke-linecap:butt;stroke-linejoin:round;stroke-opacity:1"/></g></g></svg>